<mxfile host="app.diagrams.net" modified="2023-04-02T17:40:34.009Z" agent="Mozilla/5.0 (Windows NT 10.0; Win64; x64) AppleWebKit/537.36 (KHTML, like Gecko) Chrome/111.0.0.0 Safari/537.36 Edg/111.0.1661.62" etag="m0cHJCS3Q6ZGnidicWy8" version="21.1.2" type="device">
  <diagram name="Страница 1" id="hA_mmHjfmePjkT8y8eYG">
    <mxGraphModel dx="792" dy="1138" grid="1" gridSize="10" guides="1" tooltips="1" connect="1" arrows="1" fold="1" page="1" pageScale="1" pageWidth="827" pageHeight="1169" math="0" shadow="0">
      <root>
        <mxCell id="0" />
        <mxCell id="1" parent="0" />
        <mxCell id="E4sPWBApXWNyGJbcvK0o-3" style="edgeStyle=orthogonalEdgeStyle;rounded=0;orthogonalLoop=1;jettySize=auto;html=1;" edge="1" parent="1" source="E4sPWBApXWNyGJbcvK0o-1" target="E4sPWBApXWNyGJbcvK0o-2">
          <mxGeometry relative="1" as="geometry" />
        </mxCell>
        <mxCell id="E4sPWBApXWNyGJbcvK0o-1" value="Начало&lt;br&gt;variantFunction" style="ellipse;whiteSpace=wrap;html=1;" vertex="1" parent="1">
          <mxGeometry x="354" y="20" width="120" height="80" as="geometry" />
        </mxCell>
        <mxCell id="E4sPWBApXWNyGJbcvK0o-5" style="edgeStyle=orthogonalEdgeStyle;rounded=0;orthogonalLoop=1;jettySize=auto;html=1;entryX=0.5;entryY=0;entryDx=0;entryDy=0;" edge="1" parent="1" source="E4sPWBApXWNyGJbcvK0o-2" target="E4sPWBApXWNyGJbcvK0o-4">
          <mxGeometry relative="1" as="geometry" />
        </mxCell>
        <mxCell id="E4sPWBApXWNyGJbcvK0o-21" value="TRUE" style="edgeStyle=orthogonalEdgeStyle;rounded=0;orthogonalLoop=1;jettySize=auto;html=1;" edge="1" parent="1" source="E4sPWBApXWNyGJbcvK0o-2">
          <mxGeometry relative="1" as="geometry">
            <mxPoint x="420" y="770" as="targetPoint" />
            <Array as="points">
              <mxPoint x="200" y="160" />
              <mxPoint x="200" y="770" />
            </Array>
          </mxGeometry>
        </mxCell>
        <mxCell id="E4sPWBApXWNyGJbcvK0o-2" value="!trainList" style="rhombus;whiteSpace=wrap;html=1;" vertex="1" parent="1">
          <mxGeometry x="374" y="120" width="80" height="80" as="geometry" />
        </mxCell>
        <mxCell id="E4sPWBApXWNyGJbcvK0o-7" style="edgeStyle=orthogonalEdgeStyle;rounded=0;orthogonalLoop=1;jettySize=auto;html=1;" edge="1" parent="1" source="E4sPWBApXWNyGJbcvK0o-4" target="E4sPWBApXWNyGJbcvK0o-6">
          <mxGeometry relative="1" as="geometry" />
        </mxCell>
        <mxCell id="E4sPWBApXWNyGJbcvK0o-12" style="edgeStyle=orthogonalEdgeStyle;rounded=0;orthogonalLoop=1;jettySize=auto;html=1;entryX=0.5;entryY=0;entryDx=0;entryDy=0;exitX=1;exitY=0.5;exitDx=0;exitDy=0;" edge="1" parent="1" source="E4sPWBApXWNyGJbcvK0o-6" target="E4sPWBApXWNyGJbcvK0o-11">
          <mxGeometry relative="1" as="geometry">
            <mxPoint x="510" y="500" as="targetPoint" />
            <Array as="points">
              <mxPoint x="490" y="340" />
              <mxPoint x="490" y="500" />
              <mxPoint x="414" y="500" />
            </Array>
          </mxGeometry>
        </mxCell>
        <mxCell id="E4sPWBApXWNyGJbcvK0o-4" value="&lt;div style=&quot;font-size: 14px; line-height: 19px;&quot;&gt;&lt;div style=&quot;&quot;&gt;&lt;span style=&quot;background-color: rgb(255, 255, 255);&quot;&gt;train1 = trainList&lt;/span&gt;&lt;/div&gt;&lt;div style=&quot;&quot;&gt;&lt;span style=&quot;background-color: rgb(255, 255, 255);&quot;&gt;train2&lt;/span&gt;&lt;span style=&quot;background-color: rgb(255, 255, 255);&quot;&gt; = &lt;/span&gt;&lt;span style=&quot;background-color: rgb(255, 255, 255);&quot;&gt;NULL&lt;/span&gt;&lt;/div&gt;&lt;/div&gt;" style="rounded=0;whiteSpace=wrap;html=1;" vertex="1" parent="1">
          <mxGeometry x="355" y="220" width="118" height="60" as="geometry" />
        </mxCell>
        <mxCell id="E4sPWBApXWNyGJbcvK0o-9" style="edgeStyle=orthogonalEdgeStyle;rounded=0;orthogonalLoop=1;jettySize=auto;html=1;entryX=0.5;entryY=0;entryDx=0;entryDy=0;" edge="1" parent="1" source="E4sPWBApXWNyGJbcvK0o-6" target="E4sPWBApXWNyGJbcvK0o-8">
          <mxGeometry relative="1" as="geometry" />
        </mxCell>
        <mxCell id="E4sPWBApXWNyGJbcvK0o-6" value="train1-&amp;gt;next" style="rhombus;whiteSpace=wrap;html=1;" vertex="1" parent="1">
          <mxGeometry x="374" y="300" width="80" height="80" as="geometry" />
        </mxCell>
        <mxCell id="E4sPWBApXWNyGJbcvK0o-10" style="edgeStyle=orthogonalEdgeStyle;rounded=0;orthogonalLoop=1;jettySize=auto;html=1;entryX=0;entryY=0.5;entryDx=0;entryDy=0;" edge="1" parent="1" source="E4sPWBApXWNyGJbcvK0o-8" target="E4sPWBApXWNyGJbcvK0o-6">
          <mxGeometry relative="1" as="geometry">
            <mxPoint x="340" y="340" as="targetPoint" />
            <Array as="points">
              <mxPoint x="414" y="490" />
              <mxPoint x="340" y="490" />
              <mxPoint x="340" y="340" />
            </Array>
          </mxGeometry>
        </mxCell>
        <mxCell id="E4sPWBApXWNyGJbcvK0o-8" value="train2 = train1&lt;br&gt;train1 = train1-&amp;gt;next" style="rounded=0;whiteSpace=wrap;html=1;" vertex="1" parent="1">
          <mxGeometry x="354" y="400" width="120" height="60" as="geometry" />
        </mxCell>
        <mxCell id="E4sPWBApXWNyGJbcvK0o-14" style="edgeStyle=orthogonalEdgeStyle;rounded=0;orthogonalLoop=1;jettySize=auto;html=1;entryX=0.5;entryY=0;entryDx=0;entryDy=0;" edge="1" parent="1" source="E4sPWBApXWNyGJbcvK0o-11">
          <mxGeometry relative="1" as="geometry">
            <mxPoint x="413.5" y="610" as="targetPoint" />
          </mxGeometry>
        </mxCell>
        <mxCell id="E4sPWBApXWNyGJbcvK0o-11" value="&lt;div style=&quot;font-size: 14px; line-height: 19px;&quot;&gt;&lt;span style=&quot;background-color: rgb(255, 255, 255);&quot;&gt;newTrain = (struct trainList*)malloc(sizeof(struct trainList))&lt;/span&gt;&lt;/div&gt;&lt;div style=&quot;font-size: 14px; line-height: 19px;&quot;&gt;newTrain-&amp;gt;train=setTrain()&lt;span style=&quot;background-color: rgb(255, 255, 255);&quot;&gt;&lt;br&gt;&lt;/span&gt;&lt;/div&gt;&lt;div style=&quot;font-size: 14px; line-height: 19px;&quot;&gt;newTrain-&amp;gt;next=NULL&lt;br&gt;&lt;/div&gt;" style="rounded=0;whiteSpace=wrap;html=1;" vertex="1" parent="1">
          <mxGeometry x="232" y="525" width="364" height="60" as="geometry" />
        </mxCell>
        <mxCell id="E4sPWBApXWNyGJbcvK0o-18" style="edgeStyle=orthogonalEdgeStyle;rounded=0;orthogonalLoop=1;jettySize=auto;html=1;" edge="1" parent="1" source="E4sPWBApXWNyGJbcvK0o-15" target="E4sPWBApXWNyGJbcvK0o-17">
          <mxGeometry relative="1" as="geometry" />
        </mxCell>
        <mxCell id="E4sPWBApXWNyGJbcvK0o-15" value="&lt;div style=&quot;font-size: 14px; line-height: 19px;&quot;&gt;&lt;div style=&quot;&quot;&gt;&lt;span style=&quot;background-color: rgb(255, 255, 255);&quot;&gt;train2-&amp;gt;next = newTrain&lt;/span&gt;&lt;br&gt;&lt;/div&gt;&lt;/div&gt;" style="rounded=0;whiteSpace=wrap;html=1;" vertex="1" parent="1">
          <mxGeometry x="337" y="610" width="154" height="40" as="geometry" />
        </mxCell>
        <mxCell id="E4sPWBApXWNyGJbcvK0o-20" style="edgeStyle=orthogonalEdgeStyle;rounded=0;orthogonalLoop=1;jettySize=auto;html=1;" edge="1" parent="1" source="E4sPWBApXWNyGJbcvK0o-17" target="E4sPWBApXWNyGJbcvK0o-19">
          <mxGeometry relative="1" as="geometry" />
        </mxCell>
        <mxCell id="E4sPWBApXWNyGJbcvK0o-17" value="&lt;div style=&quot;font-size: 14px; line-height: 19px;&quot;&gt;&lt;div style=&quot;&quot;&gt;&lt;span style=&quot;background-color: rgb(255, 255, 255);&quot;&gt;newTrain-&amp;gt;next = (struct trainList*)malloc(sizeof(struct trainList))&lt;/span&gt;&lt;/div&gt;&lt;div style=&quot;&quot;&gt;&lt;span style=&quot;background-color: rgb(255, 255, 255);&quot;&gt;newTrain-&amp;gt;next-&amp;gt;train=setTrain()&lt;/span&gt;&lt;/div&gt;&lt;div style=&quot;&quot;&gt;&lt;span style=&quot;background-color: rgb(255, 255, 255);&quot;&gt;newTrain-&amp;gt;next-&amp;gt;next=train1&lt;/span&gt;&lt;/div&gt;&lt;/div&gt;" style="rounded=0;whiteSpace=wrap;html=1;" vertex="1" parent="1">
          <mxGeometry x="214" y="680" width="400" height="60" as="geometry" />
        </mxCell>
        <mxCell id="E4sPWBApXWNyGJbcvK0o-19" value="Конец" style="ellipse;whiteSpace=wrap;html=1;" vertex="1" parent="1">
          <mxGeometry x="354" y="800" width="120" height="80" as="geometry" />
        </mxCell>
      </root>
    </mxGraphModel>
  </diagram>
</mxfile>
